<svg width="2158" height="3189" viewBox="0 0 2158 3189" fill="none" xmlns="http://www.w3.org/2000/svg">
<rect x="14.1403" y="15.006" width="2129.72" height="3159.18" rx="1064.86" stroke="#BC3B13" stroke-width="28.2806"/>
<mask id="path-2-outside-1_186_116" maskUnits="userSpaceOnUse" x="478.917" y="1431.03" width="839" height="878" fill="black">
<rect fill="white" x="478.917" y="1431.03" width="839" height="878"/>
<path d="M1223.16 2240.17C1230.9 2257.96 1240.96 2271.5 1253.34 2280.78C1265.71 2289.29 1283.12 2293.55 1305.56 2293.55V2297.03C1294.72 2297.03 1285.83 2296.64 1278.87 2295.87C1271.9 2294.32 1265.33 2292.78 1259.14 2291.23C1253.72 2289.68 1248.31 2288.52 1242.89 2287.75C1237.48 2286.2 1230.51 2285.43 1222 2285.43C1215.04 2285.43 1208.85 2286.2 1203.44 2287.75C1198.02 2288.52 1192.22 2289.68 1186.03 2291.23C1180.61 2292.78 1174.43 2294.32 1167.46 2295.87C1160.5 2296.64 1151.6 2297.03 1140.77 2297.03V2293.55C1167.08 2293.55 1186.8 2288.91 1199.96 2279.62C1213.11 2269.57 1216.2 2256.41 1209.24 2240.17L1100.16 1979.07L696.321 1979.07L588.399 2240.17C580.663 2256.41 583.371 2269.57 596.522 2279.62C610.448 2288.91 630.175 2293.55 655.705 2293.55L655.705 2297.03C645.648 2297.03 636.751 2296.64 629.015 2295.87C622.052 2294.32 615.476 2292.78 609.287 2291.23C603.872 2289.68 598.456 2288.52 593.041 2287.75C587.626 2286.2 581.437 2285.43 574.474 2285.43C566.738 2285.43 559.775 2286.2 553.586 2287.75C548.17 2288.52 542.368 2289.68 536.179 2291.23C530.764 2292.78 524.575 2294.32 517.612 2295.87C510.649 2296.64 501.752 2297.03 490.922 2297.03L490.922 2293.55C513.357 2293.55 530.764 2289.29 543.142 2280.78C556.294 2271.5 566.738 2257.96 574.474 2240.17L898.239 1461.51L1223.16 2240.17ZM898.239 1492.84L700.963 1967.46L1096.68 1967.46L898.239 1492.84Z"/>
</mask>
<path d="M1223.16 2240.17C1230.9 2257.96 1240.96 2271.5 1253.34 2280.78C1265.71 2289.29 1283.12 2293.55 1305.56 2293.55V2297.03C1294.72 2297.03 1285.83 2296.64 1278.87 2295.87C1271.9 2294.32 1265.33 2292.78 1259.14 2291.23C1253.72 2289.68 1248.31 2288.52 1242.89 2287.75C1237.48 2286.2 1230.51 2285.43 1222 2285.43C1215.04 2285.43 1208.85 2286.2 1203.44 2287.75C1198.02 2288.52 1192.22 2289.68 1186.03 2291.23C1180.61 2292.78 1174.43 2294.32 1167.46 2295.87C1160.5 2296.64 1151.6 2297.03 1140.77 2297.03V2293.55C1167.08 2293.55 1186.8 2288.91 1199.96 2279.62C1213.11 2269.57 1216.2 2256.41 1209.24 2240.17L1100.16 1979.07L696.321 1979.07L588.399 2240.17C580.663 2256.41 583.371 2269.57 596.522 2279.62C610.448 2288.91 630.175 2293.55 655.705 2293.55L655.705 2297.03C645.648 2297.03 636.751 2296.64 629.015 2295.87C622.052 2294.32 615.476 2292.78 609.287 2291.23C603.872 2289.68 598.456 2288.52 593.041 2287.75C587.626 2286.2 581.437 2285.43 574.474 2285.43C566.738 2285.43 559.775 2286.2 553.586 2287.75C548.17 2288.52 542.368 2289.68 536.179 2291.23C530.764 2292.78 524.575 2294.32 517.612 2295.87C510.649 2296.64 501.752 2297.03 490.922 2297.03L490.922 2293.55C513.357 2293.55 530.764 2289.29 543.142 2280.78C556.294 2271.5 566.738 2257.96 574.474 2240.17L898.239 1461.51L1223.16 2240.17ZM898.239 1492.84L700.963 1967.46L1096.68 1967.46L898.239 1492.84Z" fill="#BC3B13"/>
<path d="M1223.16 2240.17L1212.64 2244.56L1212.67 2244.64L1212.71 2244.72L1223.16 2240.17ZM1253.34 2280.78L1246.49 2289.91L1246.68 2290.05L1246.88 2290.18L1253.34 2280.78ZM1305.56 2293.55L1316.96 2293.55L1316.96 2282.15L1305.56 2282.15L1305.56 2293.55ZM1305.56 2297.03V2308.43L1316.96 2308.43V2297.03L1305.56 2297.03ZM1278.87 2295.87L1276.39 2307L1276.99 2307.14L1277.61 2307.2L1278.87 2295.87ZM1259.14 2291.23L1256.01 2302.19L1256.19 2302.25L1256.37 2302.29L1259.14 2291.23ZM1242.89 2287.75L1239.76 2298.71L1240.51 2298.93L1241.28 2299.04L1242.89 2287.75ZM1203.44 2287.75L1205.05 2299.04L1205.82 2298.93L1206.57 2298.71L1203.44 2287.75ZM1186.03 2291.23L1183.26 2280.17L1183.08 2280.21L1182.9 2280.26L1186.03 2291.23ZM1167.46 2295.87L1168.72 2307.2L1169.33 2307.14L1169.94 2307L1167.46 2295.87ZM1140.77 2297.03L1129.37 2297.03V2308.43L1140.77 2308.43V2297.03ZM1140.77 2293.55L1140.77 2282.15H1129.37L1129.37 2293.55H1140.77ZM1199.96 2279.62L1206.53 2288.94L1206.71 2288.81L1206.88 2288.68L1199.96 2279.62ZM1209.24 2240.17L1198.72 2244.56L1198.74 2244.61L1198.76 2244.66L1209.24 2240.17ZM1100.16 1979.07L1110.68 1974.67L1107.75 1967.66H1100.16V1979.07ZM696.321 1979.07V1967.66H688.695L685.782 1974.71L696.321 1979.07ZM588.399 2240.17L598.695 2245.07L598.824 2244.8L598.938 2244.52L588.399 2240.17ZM596.522 2279.62L589.595 2288.68L589.889 2288.91L590.197 2289.11L596.522 2279.62ZM655.705 2293.55H667.109V2282.15H655.705V2293.55ZM655.705 2297.03V2308.43H667.109V2297.03H655.705ZM629.015 2295.87L626.541 2307L627.204 2307.15L627.88 2307.22L629.015 2295.87ZM609.287 2291.23L606.155 2302.19L606.337 2302.25L606.522 2302.29L609.287 2291.23ZM593.041 2287.75L589.908 2298.71L590.657 2298.93L591.428 2299.04L593.041 2287.75ZM553.586 2287.75L555.199 2299.04L555.781 2298.95L556.352 2298.81L553.586 2287.75ZM536.179 2291.23L533.413 2280.17L533.229 2280.21L533.046 2280.26L536.179 2291.23ZM517.612 2295.87L518.871 2307.2L519.484 2307.14L520.086 2307L517.612 2295.87ZM490.922 2297.03H479.518L479.518 2308.43H490.922L490.922 2297.03ZM490.922 2293.55L490.922 2282.15H479.518L479.518 2293.55H490.922ZM543.142 2280.78L549.602 2290.18L549.66 2290.14L549.718 2290.1L543.142 2280.78ZM574.474 2240.17L584.932 2244.72L584.968 2244.63L585.003 2244.55L574.474 2240.17ZM898.239 1461.51L908.763 1457.12L898.22 1431.85L887.709 1457.13L898.239 1461.51ZM898.239 1492.84L908.76 1488.44L898.208 1463.2L887.709 1488.46L898.239 1492.84ZM700.963 1967.46L690.433 1963.09L683.874 1978.87H700.963V1967.46ZM1096.68 1967.46V1978.87H1113.8L1107.2 1963.06L1096.68 1967.46ZM1212.71 2244.72C1221.03 2263.87 1232.18 2279.17 1246.49 2289.91L1260.18 2271.66C1249.73 2263.83 1240.77 2252.06 1233.62 2235.62L1212.71 2244.72ZM1246.88 2290.18C1261.88 2300.5 1281.89 2304.95 1305.56 2304.95L1305.56 2282.15C1284.35 2282.15 1269.55 2278.09 1259.8 2271.39L1246.88 2290.18ZM1294.15 2293.55V2297.03L1316.96 2297.03V2293.55L1294.15 2293.55ZM1305.56 2285.63C1294.95 2285.63 1286.51 2285.25 1280.12 2284.54L1277.61 2307.2C1285.15 2308.04 1294.5 2308.43 1305.56 2308.43L1305.56 2285.63ZM1281.34 2284.74C1274.46 2283.21 1267.99 2281.69 1261.9 2280.17L1256.37 2302.29C1262.67 2303.87 1269.34 2305.44 1276.39 2307L1281.34 2284.74ZM1262.27 2280.26C1256.37 2278.58 1250.45 2277.31 1244.5 2276.46L1241.28 2299.04C1246.17 2299.73 1251.07 2300.78 1256.01 2302.19L1262.27 2280.26ZM1246.02 2276.78C1239.21 2274.84 1231.09 2274.02 1222 2274.02L1222 2296.83C1229.94 2296.83 1235.74 2297.56 1239.76 2298.71L1246.02 2276.78ZM1222 2274.02C1214.22 2274.02 1206.94 2274.88 1200.3 2276.78L1206.57 2298.71C1210.76 2297.51 1215.86 2296.83 1222 2296.83L1222 2274.02ZM1201.82 2276.46C1195.96 2277.3 1189.77 2278.54 1183.26 2280.17L1188.8 2302.29C1194.67 2300.82 1200.08 2299.75 1205.05 2299.04L1201.82 2276.46ZM1182.9 2280.26C1177.75 2281.73 1171.79 2283.23 1164.99 2284.74L1169.94 2307C1177.07 2305.42 1183.48 2303.82 1189.16 2302.19L1182.9 2280.26ZM1166.2 2284.54C1159.82 2285.25 1151.38 2285.63 1140.77 2285.63L1140.77 2308.43C1151.82 2308.43 1161.18 2308.04 1168.72 2307.2L1166.2 2284.54ZM1152.18 2297.03V2293.55H1129.37V2297.03L1152.18 2297.03ZM1140.77 2304.95C1168.07 2304.95 1190.58 2300.2 1206.53 2288.94L1193.38 2270.31C1183.02 2277.62 1166.08 2282.15 1140.77 2282.15L1140.77 2304.95ZM1206.88 2288.68C1215.06 2282.42 1220.96 2274.51 1223.24 2264.83C1225.5 2255.24 1223.87 2245.35 1219.72 2235.68L1198.76 2244.66C1201.57 2251.23 1201.88 2256.04 1201.04 2259.61C1200.22 2263.07 1198 2266.77 1193.03 2270.57L1206.88 2288.68ZM1219.76 2235.77L1110.68 1974.67L1089.63 1983.46L1198.72 2244.56L1219.76 2235.77ZM1100.16 1967.66L696.321 1967.66V1990.47L1100.16 1990.47V1967.66ZM685.782 1974.71L577.861 2235.81L598.938 2244.52L706.86 1983.42L685.782 1974.71ZM578.103 2235.27C573.528 2244.87 571.458 2254.8 573.459 2264.52C575.487 2274.37 581.366 2282.39 589.595 2288.68L603.449 2270.57C598.527 2266.8 596.476 2263.22 595.797 2259.92C595.09 2256.48 595.534 2251.71 598.695 2245.07L578.103 2235.27ZM590.197 2289.11C606.74 2300.14 629.027 2304.95 655.705 2304.95L655.705 2282.15C631.324 2282.15 614.155 2277.67 602.848 2270.14L590.197 2289.11ZM644.302 2293.55L644.302 2297.03H667.109L667.109 2293.55H644.302ZM655.705 2285.63C645.924 2285.63 637.418 2285.25 630.15 2284.52L627.88 2307.22C636.084 2308.04 645.372 2308.43 655.705 2308.43L655.705 2285.63ZM631.489 2284.74C624.612 2283.21 618.135 2281.69 612.053 2280.17L606.522 2302.29C612.818 2303.87 619.492 2305.44 626.541 2307L631.489 2284.74ZM612.42 2280.26C606.521 2278.58 600.598 2277.31 594.654 2276.46L591.428 2299.04C596.315 2299.73 601.223 2300.78 606.155 2302.19L612.42 2280.26ZM596.174 2276.78C589.533 2274.88 582.257 2274.02 574.474 2274.02L574.474 2296.83C580.616 2296.83 585.719 2297.51 589.908 2298.71L596.174 2276.78ZM574.474 2274.02C565.995 2274.02 558.081 2274.87 550.82 2276.68L556.352 2298.81C561.469 2297.53 567.48 2296.83 574.474 2296.83L574.474 2274.02ZM551.973 2276.46C546.112 2277.3 539.922 2278.54 533.413 2280.17L538.945 2302.29C544.814 2300.82 550.228 2299.75 555.199 2299.04L551.973 2276.46ZM533.046 2280.26C527.897 2281.73 521.935 2283.23 515.138 2284.74L520.086 2307C527.215 2305.42 533.63 2303.82 539.312 2302.19L533.046 2280.26ZM516.353 2284.54C509.969 2285.25 501.532 2285.63 490.922 2285.63L490.922 2308.43C501.973 2308.43 511.33 2308.04 518.871 2307.2L516.353 2284.54ZM502.325 2297.03L502.325 2293.55H479.518L479.518 2297.03H502.325ZM490.922 2304.95C514.59 2304.95 534.598 2300.5 549.602 2290.18L536.681 2271.39C526.93 2278.09 512.124 2282.15 490.922 2282.15L490.922 2304.95ZM549.718 2290.1C564.896 2279.39 576.534 2264.03 584.932 2244.72L564.016 2235.62C556.941 2251.89 547.691 2263.61 536.566 2271.47L549.718 2290.1ZM585.003 2244.55L908.768 1465.89L887.709 1457.13L563.944 2235.79L585.003 2244.55ZM887.715 1465.9L1212.64 2244.56L1233.69 2235.78L908.763 1457.12L887.715 1465.9ZM887.709 1488.46L690.433 1963.09L711.493 1971.84L908.769 1497.22L887.709 1488.46ZM700.963 1978.87L1096.68 1978.87V1956.06L700.963 1956.06L700.963 1978.87ZM1107.2 1963.06L908.76 1488.44L887.718 1497.24L1086.15 1971.86L1107.2 1963.06Z" fill="#BC3B13" mask="url(#path-2-outside-1_186_116)"/>
<mask id="path-4-outside-2_186_116" maskUnits="userSpaceOnUse" x="417.351" y="655.616" width="968" height="826" fill="black">
<rect fill="white" x="417.351" y="655.616" width="968" height="826"/>
<path d="M586.398 1469.62C577.801 1469.62 570.279 1469.26 563.831 1468.54C557.384 1467.11 551.294 1465.68 545.563 1464.24C539.832 1462.81 534.1 1461.74 528.369 1461.02C522.638 1459.59 516.19 1458.87 509.026 1458.87C495.415 1458.87 482.877 1460.66 471.415 1464.24C459.953 1467.83 445.983 1469.62 429.505 1469.62L429.505 1466.39C454.579 1466.39 473.206 1461.74 485.385 1452.42C498.28 1443.11 505.444 1431.29 506.877 1416.96L584.249 695.899L901.258 1328.84L1218.27 695.899L1295.64 1416.96C1297.07 1431.29 1303.88 1443.11 1316.06 1452.42C1328.95 1461.74 1347.94 1466.39 1373.01 1466.39V1469.62C1356.53 1469.62 1342.2 1467.83 1330.03 1464.24C1318.56 1460.66 1306.38 1458.87 1293.49 1458.87C1278.44 1458.87 1265.91 1460.66 1255.88 1464.24C1246.56 1467.83 1233.31 1469.62 1216.12 1469.62V1466.39C1241.19 1466.39 1258.74 1461.74 1268.77 1452.42C1279.52 1443.11 1284.18 1431.29 1282.74 1416.96L1209.67 738.884L901.258 1356.78L591.771 738.884L518.698 1416.96C517.265 1431.29 521.922 1443.11 532.668 1452.42C543.414 1461.74 561.324 1466.39 586.398 1466.39L586.398 1469.62Z"/>
</mask>
<path d="M586.398 1469.62C577.801 1469.62 570.279 1469.26 563.831 1468.54C557.384 1467.11 551.294 1465.68 545.563 1464.24C539.832 1462.81 534.1 1461.74 528.369 1461.02C522.638 1459.59 516.19 1458.87 509.026 1458.87C495.415 1458.87 482.877 1460.66 471.415 1464.24C459.953 1467.83 445.983 1469.62 429.505 1469.62L429.505 1466.39C454.579 1466.39 473.206 1461.74 485.385 1452.42C498.28 1443.11 505.444 1431.29 506.877 1416.96L584.249 695.899L901.258 1328.84L1218.27 695.899L1295.64 1416.96C1297.07 1431.29 1303.88 1443.11 1316.06 1452.42C1328.95 1461.74 1347.94 1466.39 1373.01 1466.39V1469.62C1356.53 1469.62 1342.2 1467.83 1330.03 1464.24C1318.56 1460.66 1306.38 1458.87 1293.49 1458.87C1278.44 1458.87 1265.91 1460.66 1255.88 1464.24C1246.56 1467.83 1233.31 1469.62 1216.12 1469.62V1466.39C1241.19 1466.39 1258.74 1461.74 1268.77 1452.42C1279.52 1443.11 1284.18 1431.29 1282.74 1416.96L1209.67 738.884L901.258 1356.78L591.771 738.884L518.698 1416.96C517.265 1431.29 521.922 1443.11 532.668 1452.42C543.414 1461.74 561.324 1466.39 586.398 1466.39L586.398 1469.62Z" fill="#BC3B13"/>
<path d="M586.398 1469.62V1481.02H597.801V1469.62H586.398ZM563.831 1468.54L561.357 1479.67L561.959 1479.81L562.572 1479.88L563.831 1468.54ZM545.563 1464.24L542.797 1475.31L542.797 1475.31L545.563 1464.24ZM528.369 1461.02L525.603 1472.08L526.271 1472.25L526.955 1472.33L528.369 1461.02ZM429.505 1469.62H418.102L418.102 1481.02H429.505L429.505 1469.62ZM429.505 1466.39L429.505 1454.99H418.102L418.102 1466.39H429.505ZM485.385 1452.42L478.708 1443.18L478.582 1443.27L478.458 1443.36L485.385 1452.42ZM506.877 1416.96L495.539 1415.74L495.534 1415.78L495.53 1415.83L506.877 1416.96ZM584.249 695.899L594.445 690.793L577.054 656.069L572.91 694.683L584.249 695.899ZM901.258 1328.84L891.062 1333.95L901.258 1354.31L911.454 1333.95L901.258 1328.84ZM1218.27 695.899L1229.61 694.683L1225.46 656.069L1208.07 690.793L1218.27 695.899ZM1295.64 1416.96L1306.99 1415.83L1306.98 1415.78L1306.98 1415.74L1295.64 1416.96ZM1316.06 1452.42L1309.13 1461.48L1309.25 1461.58L1309.38 1461.67L1316.06 1452.42ZM1373.01 1466.39H1384.41V1454.99H1373.01V1466.39ZM1373.01 1469.62L1373.01 1481.02H1384.41L1384.41 1469.62H1373.01ZM1330.03 1464.24L1326.62 1475.13L1326.72 1475.16L1326.81 1475.18L1330.03 1464.24ZM1255.88 1464.24L1252.04 1453.5L1251.91 1453.55L1251.78 1453.6L1255.88 1464.24ZM1216.12 1469.62H1204.71L1204.71 1481.02H1216.12L1216.12 1469.62ZM1216.12 1466.39V1454.99H1204.71V1466.39H1216.12ZM1268.77 1452.42L1261.3 1443.81L1261.16 1443.93L1261.01 1444.07L1268.77 1452.42ZM1282.74 1416.96L1294.09 1415.83L1294.09 1415.78L1294.08 1415.74L1282.74 1416.96ZM1209.67 738.884L1221.01 737.662L1216.84 698.985L1199.47 733.791L1209.67 738.884ZM901.258 1356.78L891.062 1361.89L901.275 1382.28L911.461 1361.88L901.258 1356.78ZM591.771 738.884L601.967 733.777L584.59 699.084L580.433 737.662L591.771 738.884ZM518.698 1416.96L507.36 1415.74L507.355 1415.78L507.351 1415.83L518.698 1416.96ZM532.668 1452.42L540.136 1443.81L540.136 1443.81L532.668 1452.42ZM586.398 1466.39H597.801V1454.99H586.398V1466.39ZM586.398 1458.21C578.096 1458.21 571.011 1457.87 565.09 1457.21L562.572 1479.88C569.547 1480.65 577.507 1481.02 586.398 1481.02L586.398 1458.21ZM566.305 1457.41C559.944 1456 553.952 1454.59 548.329 1453.18L542.797 1475.31C548.636 1476.77 554.823 1478.22 561.357 1479.67L566.305 1457.41ZM548.329 1453.18C542.163 1451.64 535.98 1450.48 529.784 1449.7L526.955 1472.33C532.221 1472.99 537.501 1473.98 542.797 1475.31L548.329 1453.18ZM531.135 1449.96C524.332 1448.26 516.933 1447.47 509.026 1447.47L509.026 1470.27C515.448 1470.27 520.944 1470.92 525.603 1472.08L531.135 1449.96ZM509.026 1447.47C494.412 1447.47 480.713 1449.39 468.014 1453.36L474.816 1475.13C485.042 1471.93 496.417 1470.27 509.026 1470.27L509.026 1447.47ZM468.014 1453.36C457.976 1456.5 445.226 1458.21 429.505 1458.21L429.505 1481.02C446.739 1481.02 461.929 1479.15 474.816 1475.13L468.014 1453.36ZM440.909 1469.62L440.909 1466.39H418.102V1469.62H440.909ZM429.505 1477.8C455.62 1477.8 477.232 1473.01 492.312 1461.48L478.458 1443.36C469.18 1450.46 453.539 1454.99 429.505 1454.99L429.505 1477.8ZM492.062 1461.67C507.292 1450.67 516.43 1436.03 518.224 1418.1L495.53 1415.83C494.458 1426.54 489.268 1435.55 478.708 1443.18L492.062 1461.67ZM518.215 1418.18L595.587 697.116L572.91 694.683L495.539 1415.74L518.215 1418.18ZM574.053 701.006L891.062 1333.95L911.454 1323.74L594.445 690.793L574.053 701.006ZM911.454 1333.95L1228.46 701.006L1208.07 690.793L891.062 1323.74L911.454 1333.95ZM1206.93 697.116L1284.3 1418.18L1306.98 1415.74L1229.61 694.683L1206.93 697.116ZM1284.29 1418.1C1286.06 1435.78 1294.63 1450.39 1309.13 1461.48L1322.98 1443.36C1313.13 1435.83 1308.08 1426.79 1306.99 1415.83L1284.29 1418.1ZM1309.38 1461.67C1325.05 1472.98 1346.82 1477.8 1373.01 1477.8L1373.01 1454.99C1349.05 1454.99 1332.85 1450.49 1322.73 1443.18L1309.38 1461.67ZM1361.61 1466.39V1469.62H1384.41V1466.39H1361.61ZM1373.01 1458.21C1357.32 1458.21 1344.12 1456.5 1333.24 1453.3L1326.81 1475.18C1340.29 1479.15 1355.75 1481.02 1373.01 1481.02L1373.01 1458.21ZM1333.43 1453.36C1320.79 1449.41 1307.45 1447.47 1293.49 1447.47V1470.27C1305.32 1470.27 1316.34 1471.91 1326.62 1475.13L1333.43 1453.36ZM1293.49 1447.47C1277.63 1447.47 1263.7 1449.34 1252.04 1453.5L1259.71 1474.98C1268.12 1471.98 1279.26 1470.27 1293.49 1470.27V1447.47ZM1251.78 1453.6C1244.39 1456.44 1232.77 1458.21 1216.12 1458.21L1216.12 1481.02C1233.85 1481.02 1248.74 1479.21 1259.97 1474.89L1251.78 1453.6ZM1227.52 1469.62V1466.39H1204.71V1469.62H1227.52ZM1216.12 1477.8C1241.92 1477.8 1263.22 1473.14 1276.53 1460.78L1261.01 1444.07C1254.26 1450.33 1240.46 1454.99 1216.12 1454.99L1216.12 1477.8ZM1276.24 1461.04C1289.83 1449.26 1295.89 1433.79 1294.09 1415.83L1271.4 1418.1C1272.47 1428.79 1269.21 1436.96 1261.3 1443.81L1276.24 1461.04ZM1294.08 1415.74L1221.01 737.662L1198.33 740.105L1271.41 1418.18L1294.08 1415.74ZM1199.47 733.791L891.055 1351.69L911.461 1361.88L1219.87 743.976L1199.47 733.791ZM911.454 1351.68L601.967 733.777L581.575 743.99L891.062 1361.89L911.454 1351.68ZM580.433 737.662L507.36 1415.74L530.036 1418.18L603.109 740.105L580.433 737.662ZM507.351 1415.83C505.555 1433.79 511.61 1449.26 525.199 1461.04L540.136 1443.81C532.233 1436.96 528.975 1428.79 530.045 1418.1L507.351 1415.83ZM525.199 1461.04C539.102 1473.09 560.473 1477.8 586.398 1477.8L586.398 1454.99C562.175 1454.99 547.725 1450.38 540.136 1443.81L525.199 1461.04ZM574.994 1466.39L574.994 1469.62H597.801L597.801 1466.39H574.994Z" fill="#BC3B13" mask="url(#path-4-outside-2_186_116)"/>
<mask id="path-6-outside-3_186_116" maskUnits="userSpaceOnUse" x="1011.79" y="1238.75" width="706" height="894" fill="black">
<rect fill="white" x="1011.79" y="1238.75" width="706" height="894"/>
<path d="M1545.04 1779.39C1552 1746.9 1565.93 1719.43 1586.81 1697C1607.7 1674.56 1640.19 1663.35 1684.29 1663.35V1695.84C1663.4 1691.97 1644.06 1691.97 1626.27 1695.84C1610.8 1699.71 1596.1 1708.22 1582.17 1721.37C1568.25 1733.75 1558.19 1754.63 1552 1784.03C1587.59 1813.43 1614.67 1842.05 1633.23 1869.91C1652.57 1896.98 1662.24 1925.61 1662.24 1955.78C1662.24 1966.61 1661.08 1977.05 1658.76 1987.11C1657.21 1997.17 1655.28 2006.45 1652.96 2014.96C1650.64 2022.7 1648.7 2030.05 1647.16 2037.01C1646.38 2043.97 1646.77 2050.16 1648.32 2055.58C1650.64 2061.77 1655.67 2067.96 1663.4 2074.14C1671.14 2079.56 1685.45 2082.27 1706.34 2082.27V2085.75C1693.19 2085.75 1682.74 2085.36 1675.01 2084.59C1667.27 2083.04 1660.31 2081.49 1654.12 2079.95C1648.7 2078.4 1643.29 2077.24 1637.87 2076.47C1632.46 2074.92 1626.27 2074.14 1619.31 2074.14C1603.83 2074.14 1590.3 2076.08 1578.69 2079.95C1567.09 2083.81 1550.84 2085.75 1529.95 2085.75V2082.27C1567.86 2082.27 1597.26 2071.05 1618.15 2048.61C1639.81 2025.41 1650.64 1994.85 1650.64 1956.94C1650.64 1926.77 1641.36 1898.92 1622.79 1873.39C1604.99 1847.86 1580.63 1823.1 1549.68 1799.12C1540.4 1841.67 1526.86 1882.67 1509.06 1922.13C1491.27 1960.81 1469.22 1994.85 1442.92 2024.25C1417.39 2053.64 1387.6 2076.85 1353.56 2093.87C1320.3 2111.67 1282.78 2120.56 1241 2120.56C1213.15 2120.56 1186.07 2117.47 1159.77 2111.28C1134.24 2105.09 1111.42 2094.65 1091.3 2079.95C1071.19 2065.25 1054.94 2045.91 1042.56 2021.92C1030.19 1997.17 1024 1967 1024 1931.41C1024 1868.75 1048.37 1812.66 1097.11 1763.14C1145.84 1712.86 1214.31 1667.6 1302.5 1627.37C1279.3 1610.35 1257.63 1593.33 1237.52 1576.31C1217.41 1559.29 1199.61 1541.89 1184.14 1524.09C1169.44 1505.53 1157.84 1486.57 1149.33 1467.23C1140.82 1447.89 1136.56 1427.78 1136.56 1406.89C1136.56 1379.04 1142.75 1355.44 1155.13 1336.1C1168.28 1315.99 1184.91 1299.74 1205.03 1287.36C1225.14 1274.21 1247.58 1264.93 1272.33 1259.51C1297.09 1253.32 1321.46 1250.23 1345.44 1250.23C1382.58 1250.23 1414.68 1256.42 1441.76 1268.79C1468.84 1280.4 1490.88 1296.26 1507.9 1316.37C1525.7 1335.71 1538.46 1357.76 1546.2 1382.52C1554.71 1407.27 1558.96 1432.03 1558.96 1456.79H1552C1552 1433.58 1547.75 1410.76 1539.24 1388.32C1530.73 1365.11 1517.96 1344.22 1500.94 1325.66C1483.92 1307.09 1462.26 1292.39 1435.96 1281.56C1410.43 1269.95 1380.25 1264.15 1345.44 1264.15C1323.01 1264.15 1300.18 1266.86 1276.97 1272.28C1253.77 1276.92 1232.49 1285.04 1213.15 1296.64C1194.58 1308.25 1179.11 1323.33 1166.73 1341.9C1155.13 1359.7 1149.33 1381.36 1149.33 1406.89C1149.33 1442.47 1161.7 1475.74 1186.46 1506.69C1211.99 1537.63 1244.1 1567.8 1282.78 1597.2C1321.46 1626.6 1364.01 1656.38 1410.43 1686.55C1456.84 1715.95 1501.71 1746.9 1545.04 1779.39ZM1245.64 2107.8C1278.91 2107.8 1308.69 2102 1335 2090.39C1362.07 2078.79 1386.06 2064.09 1406.94 2046.29C1428.61 2027.73 1447.17 2006.84 1462.65 1983.63C1478.89 1960.42 1492.43 1937.21 1503.26 1914C1514.09 1890.02 1522.6 1867.58 1528.79 1846.7C1535.75 1825.81 1540.4 1808.01 1542.72 1793.32C1505.58 1764.69 1466.51 1737.23 1425.51 1710.92C1385.28 1684.62 1346.6 1658.32 1309.47 1632.01C1272.33 1649.03 1237.13 1667.99 1203.87 1688.88C1171.37 1709.76 1142.75 1732.59 1117.99 1757.34C1093.24 1781.32 1073.51 1808.01 1058.81 1837.41C1044.89 1866.04 1037.92 1897.37 1037.92 1931.41C1037.92 1967 1044.11 1996.39 1056.49 2019.6C1069.64 2042.04 1085.89 2059.83 1105.23 2072.98C1125.34 2086.14 1147.78 2095.03 1172.53 2099.67C1197.29 2105.09 1221.66 2107.8 1245.64 2107.8Z"/>
</mask>
<path d="M1545.04 1779.39C1552 1746.9 1565.93 1719.43 1586.81 1697C1607.7 1674.56 1640.19 1663.35 1684.29 1663.35V1695.84C1663.4 1691.97 1644.06 1691.97 1626.27 1695.84C1610.8 1699.71 1596.1 1708.22 1582.17 1721.37C1568.25 1733.75 1558.19 1754.63 1552 1784.03C1587.59 1813.43 1614.67 1842.05 1633.23 1869.91C1652.57 1896.98 1662.24 1925.61 1662.24 1955.78C1662.24 1966.61 1661.08 1977.05 1658.76 1987.11C1657.21 1997.17 1655.28 2006.45 1652.96 2014.96C1650.64 2022.7 1648.7 2030.05 1647.16 2037.01C1646.38 2043.97 1646.77 2050.16 1648.32 2055.58C1650.64 2061.77 1655.67 2067.96 1663.4 2074.14C1671.14 2079.56 1685.45 2082.27 1706.34 2082.27V2085.75C1693.19 2085.75 1682.74 2085.36 1675.01 2084.59C1667.27 2083.04 1660.31 2081.49 1654.12 2079.95C1648.7 2078.4 1643.29 2077.24 1637.87 2076.47C1632.46 2074.92 1626.27 2074.14 1619.31 2074.14C1603.83 2074.14 1590.3 2076.08 1578.69 2079.95C1567.09 2083.81 1550.84 2085.75 1529.95 2085.75V2082.27C1567.86 2082.27 1597.26 2071.05 1618.15 2048.61C1639.81 2025.41 1650.64 1994.85 1650.64 1956.94C1650.64 1926.77 1641.36 1898.92 1622.79 1873.39C1604.99 1847.86 1580.63 1823.1 1549.68 1799.12C1540.4 1841.67 1526.86 1882.67 1509.06 1922.13C1491.27 1960.81 1469.22 1994.85 1442.92 2024.25C1417.39 2053.64 1387.6 2076.85 1353.56 2093.87C1320.3 2111.67 1282.78 2120.56 1241 2120.56C1213.15 2120.56 1186.07 2117.47 1159.77 2111.28C1134.24 2105.09 1111.42 2094.65 1091.3 2079.95C1071.19 2065.25 1054.94 2045.91 1042.56 2021.92C1030.19 1997.17 1024 1967 1024 1931.41C1024 1868.75 1048.37 1812.66 1097.11 1763.14C1145.84 1712.86 1214.31 1667.6 1302.5 1627.37C1279.3 1610.35 1257.63 1593.33 1237.52 1576.31C1217.41 1559.29 1199.61 1541.89 1184.14 1524.09C1169.44 1505.53 1157.84 1486.57 1149.33 1467.23C1140.82 1447.89 1136.56 1427.78 1136.56 1406.89C1136.56 1379.04 1142.75 1355.44 1155.13 1336.1C1168.28 1315.99 1184.91 1299.74 1205.03 1287.36C1225.14 1274.21 1247.58 1264.93 1272.33 1259.51C1297.09 1253.32 1321.46 1250.23 1345.44 1250.23C1382.58 1250.23 1414.68 1256.42 1441.76 1268.79C1468.84 1280.4 1490.88 1296.26 1507.9 1316.37C1525.7 1335.71 1538.46 1357.76 1546.2 1382.52C1554.71 1407.27 1558.96 1432.03 1558.96 1456.79H1552C1552 1433.58 1547.75 1410.76 1539.24 1388.32C1530.73 1365.11 1517.96 1344.22 1500.94 1325.66C1483.92 1307.09 1462.26 1292.39 1435.96 1281.56C1410.43 1269.95 1380.25 1264.15 1345.44 1264.15C1323.01 1264.15 1300.18 1266.86 1276.97 1272.28C1253.77 1276.92 1232.49 1285.04 1213.15 1296.64C1194.58 1308.25 1179.11 1323.33 1166.73 1341.9C1155.13 1359.7 1149.33 1381.36 1149.33 1406.89C1149.33 1442.47 1161.7 1475.74 1186.46 1506.69C1211.99 1537.63 1244.1 1567.8 1282.78 1597.2C1321.46 1626.6 1364.01 1656.38 1410.43 1686.55C1456.84 1715.95 1501.71 1746.9 1545.04 1779.39ZM1245.64 2107.8C1278.91 2107.8 1308.69 2102 1335 2090.39C1362.07 2078.79 1386.06 2064.09 1406.94 2046.29C1428.61 2027.73 1447.17 2006.84 1462.65 1983.63C1478.89 1960.42 1492.43 1937.21 1503.26 1914C1514.09 1890.02 1522.6 1867.58 1528.79 1846.7C1535.75 1825.81 1540.4 1808.01 1542.72 1793.32C1505.58 1764.69 1466.51 1737.23 1425.51 1710.92C1385.28 1684.62 1346.6 1658.32 1309.47 1632.01C1272.33 1649.03 1237.13 1667.99 1203.87 1688.88C1171.37 1709.76 1142.75 1732.59 1117.99 1757.34C1093.24 1781.32 1073.51 1808.01 1058.81 1837.41C1044.89 1866.04 1037.92 1897.37 1037.92 1931.41C1037.92 1967 1044.11 1996.39 1056.49 2019.6C1069.64 2042.04 1085.89 2059.83 1105.23 2072.98C1125.34 2086.14 1147.78 2095.03 1172.53 2099.67C1197.29 2105.09 1221.66 2107.8 1245.64 2107.8Z" fill="#BC3B13"/>
<path d="M1545.04 1779.39L1538.2 1788.51L1552.45 1799.21L1556.19 1781.78L1545.04 1779.39ZM1586.81 1697L1595.16 1704.77L1595.16 1704.77L1586.81 1697ZM1684.29 1663.35H1695.7V1651.94H1684.29V1663.35ZM1684.29 1695.84L1682.22 1707.05L1695.7 1709.55V1695.84H1684.29ZM1626.27 1695.84L1623.85 1684.7L1623.67 1684.73L1623.5 1684.78L1626.27 1695.84ZM1582.17 1721.37L1589.75 1729.89L1589.88 1729.78L1590 1729.66L1582.17 1721.37ZM1552 1784.03L1540.84 1781.68L1539.42 1788.43L1544.74 1792.82L1552 1784.03ZM1633.23 1869.91L1623.74 1876.23L1623.85 1876.38L1623.95 1876.53L1633.23 1869.91ZM1658.76 1987.11L1647.65 1984.55L1647.56 1984.96L1647.49 1985.38L1658.76 1987.11ZM1652.96 2014.96L1663.88 2018.24L1663.92 2018.1L1663.96 2017.96L1652.96 2014.96ZM1647.16 2037.01L1636.03 2034.54L1635.89 2035.14L1635.82 2035.75L1647.16 2037.01ZM1648.32 2055.58L1637.35 2058.71L1637.48 2059.15L1637.64 2059.58L1648.32 2055.58ZM1663.4 2074.14L1656.28 2083.05L1656.57 2083.28L1656.86 2083.49L1663.4 2074.14ZM1706.34 2082.27H1717.74L1717.74 2070.86H1706.34L1706.34 2082.27ZM1706.34 2085.75V2097.15H1717.74V2085.75H1706.34ZM1675.01 2084.59L1672.77 2095.77L1673.32 2095.88L1673.87 2095.94L1675.01 2084.59ZM1654.12 2079.95L1650.99 2090.91L1651.17 2090.96L1651.35 2091.01L1654.12 2079.95ZM1637.87 2076.47L1634.74 2087.43L1635.49 2087.64L1636.26 2087.75L1637.87 2076.47ZM1578.69 2079.95L1575.09 2069.13L1575.09 2069.13L1578.69 2079.95ZM1529.95 2085.75H1518.55V2097.15H1529.95V2085.75ZM1529.95 2082.27L1529.95 2070.86H1518.55L1518.55 2082.27H1529.95ZM1618.15 2048.61L1609.81 2040.83L1609.8 2040.84L1618.15 2048.61ZM1622.79 1873.39L1613.43 1879.91L1613.5 1880L1613.57 1880.09L1622.79 1873.39ZM1549.68 1799.12L1556.67 1790.1L1542.39 1779.04L1538.54 1796.69L1549.68 1799.12ZM1509.06 1922.13L1519.42 1926.89L1519.44 1926.85L1519.46 1926.81L1509.06 1922.13ZM1442.92 2024.25L1434.42 2016.64L1434.36 2016.7L1434.31 2016.77L1442.92 2024.25ZM1353.56 2093.87L1348.46 2083.67L1348.32 2083.74L1348.19 2083.82L1353.56 2093.87ZM1159.77 2111.28L1157.08 2122.36L1157.12 2122.37L1157.16 2122.38L1159.77 2111.28ZM1091.3 2079.95L1098.03 2070.74L1098.03 2070.74L1091.3 2079.95ZM1042.56 2021.92L1032.36 2027.02L1032.4 2027.09L1032.43 2027.15L1042.56 2021.92ZM1097.11 1763.14L1105.23 1771.14L1105.26 1771.11L1105.29 1771.08L1097.11 1763.14ZM1302.5 1627.37L1307.24 1637.75L1324.93 1629.68L1309.25 1618.18L1302.5 1627.37ZM1237.52 1576.31L1230.15 1585.02L1230.15 1585.02L1237.52 1576.31ZM1184.14 1524.09L1175.2 1531.17L1175.36 1531.38L1175.53 1531.57L1184.14 1524.09ZM1149.33 1467.23L1159.76 1462.64L1159.76 1462.64L1149.33 1467.23ZM1155.13 1336.1L1145.58 1329.86L1145.55 1329.91L1145.52 1329.95L1155.13 1336.1ZM1205.03 1287.36L1211 1297.07L1211.14 1296.99L1211.27 1296.91L1205.03 1287.36ZM1272.33 1259.51L1274.77 1270.65L1274.93 1270.61L1275.1 1270.57L1272.33 1259.51ZM1441.76 1268.79L1437.02 1279.16L1437.14 1279.22L1437.27 1279.28L1441.76 1268.79ZM1507.9 1316.37L1499.2 1323.74L1499.35 1323.92L1499.51 1324.09L1507.9 1316.37ZM1546.2 1382.52L1535.31 1385.92L1535.36 1386.07L1535.41 1386.22L1546.2 1382.52ZM1558.96 1456.79V1468.19H1570.37V1456.79H1558.96ZM1552 1456.79L1540.6 1456.79V1468.19L1552 1468.19V1456.79ZM1539.24 1388.32L1528.53 1392.25L1528.55 1392.3L1528.57 1392.36L1539.24 1388.32ZM1500.94 1325.66L1509.35 1317.95L1509.35 1317.95L1500.94 1325.66ZM1435.96 1281.56L1431.24 1291.94L1431.42 1292.02L1431.61 1292.1L1435.96 1281.56ZM1276.97 1272.28L1279.21 1283.46L1279.39 1283.42L1279.57 1283.38L1276.97 1272.28ZM1213.15 1296.64L1207.28 1286.87L1207.19 1286.92L1207.11 1286.97L1213.15 1296.64ZM1166.73 1341.9L1157.24 1335.58L1157.21 1335.62L1157.18 1335.67L1166.73 1341.9ZM1186.46 1506.69L1177.56 1513.81L1177.61 1513.88L1177.66 1513.94L1186.46 1506.69ZM1282.78 1597.2L1289.68 1588.12L1289.68 1588.12L1282.78 1597.2ZM1410.43 1686.55L1404.21 1696.12L1404.27 1696.15L1404.32 1696.19L1410.43 1686.55ZM1335 2090.39L1330.51 2079.91L1330.45 2079.93L1330.39 2079.96L1335 2090.39ZM1406.94 2046.29L1414.34 2054.97L1414.35 2054.96L1414.37 2054.95L1406.94 2046.29ZM1462.65 1983.63L1453.3 1977.09L1453.23 1977.2L1453.16 1977.3L1462.65 1983.63ZM1503.26 1914L1513.6 1918.82L1513.63 1918.76L1513.65 1918.7L1503.26 1914ZM1528.79 1846.7L1517.97 1843.09L1517.91 1843.27L1517.86 1843.46L1528.79 1846.7ZM1542.72 1793.32L1553.98 1795.09L1555.04 1788.41L1549.68 1784.28L1542.72 1793.32ZM1425.51 1710.92L1419.27 1720.47L1419.31 1720.5L1419.35 1720.52L1425.51 1710.92ZM1309.47 1632.01L1316.06 1622.71L1310.69 1618.91L1304.72 1621.65L1309.47 1632.01ZM1203.87 1688.88L1197.8 1679.22L1197.75 1679.25L1197.7 1679.28L1203.87 1688.88ZM1117.99 1757.34L1125.93 1765.53L1125.99 1765.47L1126.06 1765.41L1117.99 1757.34ZM1058.81 1837.41L1048.61 1832.31L1048.58 1832.37L1048.56 1832.42L1058.81 1837.41ZM1056.49 2019.6L1046.43 2024.97L1046.54 2025.17L1046.65 2025.37L1056.49 2019.6ZM1105.23 2072.98L1098.82 2082.41L1098.9 2082.47L1098.99 2082.53L1105.23 2072.98ZM1172.53 2099.67L1174.97 2088.53L1174.8 2088.5L1174.64 2088.47L1172.53 2099.67ZM1556.19 1781.78C1562.76 1751.13 1575.79 1725.57 1595.16 1704.77L1578.47 1689.23C1556.06 1713.3 1541.24 1742.67 1533.89 1777L1556.19 1781.78ZM1595.16 1704.77C1613.09 1685.51 1641.95 1674.75 1684.29 1674.75V1651.94C1638.44 1651.94 1602.32 1663.61 1578.47 1689.23L1595.16 1704.77ZM1672.89 1663.35V1695.84H1695.7V1663.35H1672.89ZM1686.37 1684.63C1664.24 1680.53 1643.35 1680.46 1623.85 1684.7L1628.69 1706.98C1644.78 1703.48 1662.57 1703.41 1682.22 1707.05L1686.37 1684.63ZM1623.5 1684.78C1605.79 1689.2 1589.4 1698.85 1574.34 1713.08L1590 1729.66C1602.79 1717.58 1615.81 1710.21 1629.04 1706.9L1623.5 1684.78ZM1574.6 1712.85C1558.03 1727.57 1547.25 1751.24 1540.84 1781.68L1563.16 1786.38C1569.13 1758.02 1578.46 1739.92 1589.75 1729.89L1574.6 1712.85ZM1544.74 1792.82C1579.77 1821.76 1605.98 1849.58 1623.74 1876.23L1642.72 1863.58C1623.35 1834.53 1595.41 1805.1 1559.26 1775.24L1544.74 1792.82ZM1623.95 1876.53C1642.06 1901.89 1650.84 1928.23 1650.84 1955.78H1673.65C1673.65 1922.99 1663.08 1892.08 1642.51 1863.28L1623.95 1876.53ZM1650.84 1955.78C1650.84 1965.79 1649.77 1975.37 1647.65 1984.55L1669.87 1989.67C1672.4 1978.74 1673.65 1967.43 1673.65 1955.78H1650.84ZM1647.49 1985.38C1646 1995.07 1644.15 2003.93 1641.96 2011.96L1663.96 2017.96C1666.41 2008.98 1668.43 1999.27 1670.03 1988.84L1647.49 1985.38ZM1642.04 2011.68C1639.65 2019.65 1637.64 2027.27 1636.03 2034.54L1658.29 2039.48C1659.77 2032.82 1661.63 2025.74 1663.88 2018.24L1642.04 2011.68ZM1635.82 2035.75C1634.93 2043.84 1635.31 2051.57 1637.35 2058.71L1659.28 2052.44C1658.23 2048.76 1657.84 2044.11 1658.49 2038.27L1635.82 2035.75ZM1637.64 2059.58C1640.96 2068.42 1647.68 2076.17 1656.28 2083.05L1670.53 2065.24C1663.65 2059.74 1660.32 2055.11 1659 2051.57L1637.64 2059.58ZM1656.86 2083.49C1662.58 2087.49 1669.85 2089.93 1677.82 2091.44C1685.9 2092.97 1695.46 2093.67 1706.34 2093.67L1706.34 2070.86C1696.33 2070.86 1688.29 2070.21 1682.06 2069.03C1675.72 2067.83 1671.97 2066.22 1669.94 2064.8L1656.86 2083.49ZM1694.94 2082.27V2085.75H1717.74V2082.27H1694.94ZM1706.34 2074.35C1693.35 2074.35 1683.33 2073.96 1676.14 2073.24L1673.87 2095.94C1682.16 2096.76 1693.03 2097.15 1706.34 2097.15L1706.34 2074.35ZM1677.24 2073.41C1669.65 2071.89 1662.86 2070.38 1656.89 2068.88L1651.35 2091.01C1657.75 2092.61 1664.9 2094.2 1672.77 2095.77L1677.24 2073.41ZM1657.25 2068.98C1651.35 2067.3 1645.43 2066.03 1639.49 2065.18L1636.26 2087.75C1641.15 2088.45 1646.06 2089.5 1650.99 2090.91L1657.25 2068.98ZM1641.01 2065.5C1634.37 2063.6 1627.09 2062.74 1619.31 2062.74L1619.31 2085.55C1625.45 2085.55 1630.55 2086.23 1634.74 2087.43L1641.01 2065.5ZM1619.31 2062.74C1602.92 2062.74 1588.11 2064.79 1575.09 2069.13L1582.3 2090.76C1592.48 2087.37 1604.75 2085.55 1619.31 2085.55L1619.31 2062.74ZM1575.09 2069.13C1565.18 2072.43 1550.35 2074.35 1529.95 2074.35L1529.95 2097.15C1551.33 2097.15 1568.99 2095.2 1582.3 2090.76L1575.09 2069.13ZM1541.36 2085.75V2082.27H1518.55V2085.75H1541.36ZM1529.95 2093.67C1570.22 2093.67 1602.95 2081.67 1626.49 2056.39L1609.8 2040.84C1591.56 2060.43 1565.5 2070.86 1529.95 2070.86L1529.95 2093.67ZM1626.48 2056.4C1650.49 2030.68 1662.04 1997.14 1662.04 1956.94H1639.24C1639.24 1992.55 1629.13 2020.13 1609.81 2040.83L1626.48 2056.4ZM1662.04 1956.94C1662.04 1924.24 1651.93 1894.06 1632.01 1866.68L1613.57 1880.09C1630.79 1903.77 1639.24 1929.29 1639.24 1956.94H1662.04ZM1632.14 1866.87C1613.55 1840.18 1588.3 1814.62 1556.67 1790.1L1542.69 1808.13C1572.95 1831.58 1596.44 1855.53 1613.43 1879.91L1632.14 1866.87ZM1538.54 1796.69C1529.42 1838.47 1516.13 1878.71 1498.67 1917.44L1519.46 1926.81C1537.58 1886.63 1551.37 1844.87 1560.82 1801.55L1538.54 1796.69ZM1498.7 1917.36C1481.35 1955.09 1459.91 1988.16 1434.42 2016.64L1451.42 2031.85C1478.54 2001.54 1501.19 1966.52 1519.42 1926.89L1498.7 1917.36ZM1434.31 2016.77C1409.74 2045.06 1381.14 2067.34 1348.46 2083.67L1358.66 2104.07C1394.07 2086.37 1425.04 2062.22 1451.53 2031.72L1434.31 2016.77ZM1348.19 2083.82C1316.75 2100.63 1281.11 2109.16 1241 2109.16V2131.97C1284.45 2131.97 1323.85 2122.7 1358.94 2103.93L1348.19 2083.82ZM1241 2109.16C1214 2109.16 1187.8 2106.16 1162.38 2100.18L1157.16 2122.38C1184.34 2128.78 1212.3 2131.97 1241 2131.97V2109.16ZM1162.46 2100.2C1138.3 2094.34 1116.87 2084.51 1098.03 2070.74L1084.57 2089.15C1105.97 2104.79 1130.18 2115.84 1157.08 2122.36L1162.46 2100.2ZM1098.03 2070.74C1079.46 2057.17 1064.33 2039.24 1052.7 2016.69L1032.43 2027.15C1045.55 2052.58 1062.92 2073.33 1084.57 2089.15L1098.03 2070.74ZM1052.76 2016.82C1041.37 1994.04 1035.4 1965.72 1035.4 1931.41H1012.59C1012.59 1968.28 1019 2000.3 1032.36 2027.02L1052.76 2016.82ZM1035.4 1931.41C1035.4 1872.08 1058.34 1818.78 1105.23 1771.14L1088.98 1755.14C1038.39 1806.54 1012.59 1865.41 1012.59 1931.41H1035.4ZM1105.29 1771.08C1152.74 1722.13 1219.87 1677.6 1307.24 1637.75L1297.77 1617C1208.75 1657.61 1138.95 1703.59 1088.92 1755.21L1105.29 1771.08ZM1309.25 1618.18C1286.23 1601.3 1264.78 1584.44 1244.89 1567.61L1230.15 1585.02C1250.49 1602.22 1272.36 1619.41 1295.76 1636.57L1309.25 1618.18ZM1244.89 1567.61C1225.16 1550.92 1207.79 1533.92 1192.74 1516.61L1175.53 1531.57C1191.43 1549.85 1209.65 1567.67 1230.15 1585.02L1244.89 1567.61ZM1193.08 1517.01C1178.91 1499.12 1167.84 1480.99 1159.76 1462.64L1138.89 1471.82C1147.83 1492.15 1159.97 1511.93 1175.2 1531.17L1193.08 1517.01ZM1159.76 1462.64C1151.88 1444.73 1147.96 1426.17 1147.96 1406.89H1125.16C1125.16 1429.38 1129.75 1451.05 1138.89 1471.82L1159.76 1462.64ZM1147.96 1406.89C1147.96 1380.75 1153.76 1359.4 1164.73 1342.25L1145.52 1329.95C1131.74 1351.49 1125.16 1377.32 1125.16 1406.89H1147.96ZM1164.67 1342.34C1176.92 1323.61 1192.35 1308.55 1211 1297.07L1199.05 1277.65C1177.48 1290.92 1159.64 1308.36 1145.58 1329.86L1164.67 1342.34ZM1211.27 1296.91C1230.16 1284.55 1251.29 1275.79 1274.77 1270.65L1269.9 1248.37C1243.86 1254.07 1220.12 1263.87 1198.79 1277.82L1211.27 1296.91ZM1275.1 1270.57C1299.01 1264.6 1322.45 1261.63 1345.44 1261.63V1238.82C1320.47 1238.82 1295.17 1242.05 1269.57 1248.45L1275.1 1270.57ZM1345.44 1261.63C1381.33 1261.63 1411.75 1267.61 1437.02 1279.16L1446.5 1258.42C1417.61 1245.22 1383.82 1238.82 1345.44 1238.82V1261.63ZM1437.27 1279.28C1462.91 1290.27 1483.45 1305.13 1499.2 1323.74L1516.61 1309.01C1498.32 1287.39 1474.76 1270.53 1446.25 1258.31L1437.27 1279.28ZM1499.51 1324.09C1516.18 1342.21 1528.09 1362.79 1535.31 1385.92L1557.08 1379.12C1548.84 1352.73 1535.21 1329.21 1516.3 1308.65L1499.51 1324.09ZM1535.41 1386.22C1543.54 1409.86 1547.56 1433.36 1547.56 1456.79H1570.37C1570.37 1430.7 1565.88 1404.69 1556.98 1378.81L1535.41 1386.22ZM1558.96 1445.38H1552L1552 1468.19H1558.96L1558.96 1445.38ZM1563.4 1456.79C1563.4 1432.15 1558.88 1407.96 1549.9 1384.28L1528.57 1392.36C1536.61 1413.55 1540.6 1435.01 1540.6 1456.79L1563.4 1456.79ZM1549.94 1384.39C1540.91 1359.76 1527.35 1337.59 1509.35 1317.95L1492.54 1333.36C1508.57 1350.85 1520.54 1370.46 1528.53 1392.25L1549.94 1384.39ZM1509.35 1317.95C1491.06 1298 1467.95 1282.4 1440.3 1271.01L1431.61 1292.1C1456.57 1302.38 1476.78 1316.18 1492.54 1333.36L1509.35 1317.95ZM1440.67 1271.18C1413.35 1258.76 1381.5 1252.75 1345.44 1252.75V1275.56C1379.01 1275.56 1407.5 1281.15 1431.24 1291.94L1440.67 1271.18ZM1345.44 1252.75C1322.08 1252.75 1298.39 1255.57 1274.38 1261.17L1279.57 1283.38C1301.98 1278.15 1323.93 1275.56 1345.44 1275.56V1252.75ZM1274.74 1261.09C1250.31 1265.98 1227.8 1274.56 1207.28 1286.87L1219.02 1306.42C1237.18 1295.52 1257.22 1287.86 1279.21 1283.46L1274.74 1261.09ZM1207.11 1286.97C1187.14 1299.45 1170.5 1315.69 1157.24 1335.58L1176.22 1348.23C1187.72 1330.98 1202.03 1317.04 1219.19 1306.31L1207.11 1286.97ZM1157.18 1335.67C1144.14 1355.66 1137.92 1379.6 1137.92 1406.89H1160.73C1160.73 1383.12 1166.11 1363.73 1176.28 1348.13L1157.18 1335.67ZM1137.92 1406.89C1137.92 1445.36 1151.38 1481.09 1177.56 1513.81L1195.36 1499.56C1172.03 1470.39 1160.73 1439.59 1160.73 1406.89H1137.92ZM1177.66 1513.94C1203.86 1545.69 1236.64 1576.46 1275.88 1606.28L1289.68 1588.12C1251.55 1559.15 1220.12 1529.57 1195.26 1499.43L1177.66 1513.94ZM1275.88 1606.28C1314.81 1635.87 1357.59 1665.81 1404.21 1696.12L1416.64 1676.99C1370.43 1646.95 1328.11 1617.33 1289.68 1588.12L1275.88 1606.28ZM1404.32 1696.19C1450.49 1725.43 1495.12 1756.2 1538.2 1788.51L1551.88 1770.27C1508.31 1737.59 1463.2 1706.48 1416.53 1676.92L1404.32 1696.19ZM1245.64 2119.2C1280.25 2119.2 1311.64 2113.16 1339.6 2100.82L1330.39 2079.96C1305.75 2090.83 1277.57 2096.39 1245.64 2096.39V2119.2ZM1339.49 2100.87C1367.54 2088.85 1392.52 2073.56 1414.34 2054.97L1399.55 2037.61C1379.6 2054.61 1356.61 2068.72 1330.51 2079.91L1339.49 2100.87ZM1414.37 2054.95C1436.8 2035.72 1456.07 2014.05 1472.13 1989.95L1453.16 1977.3C1438.28 1999.62 1420.41 2019.73 1399.52 2037.64L1414.37 2054.95ZM1471.99 1990.17C1488.58 1966.47 1502.46 1942.69 1513.6 1918.82L1492.93 1909.18C1482.41 1931.73 1469.21 1954.37 1453.3 1977.09L1471.99 1990.17ZM1513.65 1918.7C1524.66 1894.34 1533.36 1871.41 1539.73 1849.94L1517.86 1843.46C1511.84 1863.76 1503.53 1885.7 1492.87 1909.31L1513.65 1918.7ZM1539.61 1850.3C1546.69 1829.07 1551.53 1810.63 1553.98 1795.09L1531.45 1791.54C1529.26 1805.4 1524.82 1822.54 1517.97 1843.09L1539.61 1850.3ZM1549.68 1784.28C1512.28 1755.45 1472.94 1727.8 1431.67 1701.33L1419.35 1720.52C1460.09 1746.66 1498.89 1773.93 1535.76 1802.35L1549.68 1784.28ZM1431.75 1701.38C1391.64 1675.15 1353.07 1648.93 1316.06 1622.71L1302.88 1641.32C1340.13 1667.71 1378.93 1694.09 1419.27 1720.47L1431.75 1701.38ZM1304.72 1621.65C1267.15 1638.87 1231.51 1658.06 1197.8 1679.22L1209.93 1698.53C1242.76 1677.92 1277.52 1659.2 1314.22 1642.38L1304.72 1621.65ZM1197.7 1679.28C1164.59 1700.57 1135.32 1723.89 1109.93 1749.28L1126.06 1765.41C1150.18 1741.28 1178.16 1718.96 1210.03 1698.47L1197.7 1679.28ZM1110.06 1749.15C1084.42 1773.99 1063.91 1801.71 1048.61 1832.31L1069.01 1842.51C1083.11 1814.32 1102.05 1788.66 1125.93 1765.53L1110.06 1749.15ZM1048.56 1832.42C1033.82 1862.71 1026.52 1895.76 1026.52 1931.41H1049.33C1049.33 1898.98 1055.95 1869.37 1069.07 1842.4L1048.56 1832.42ZM1026.52 1931.41C1026.52 1968.24 1032.91 1999.63 1046.43 2024.97L1066.55 2014.24C1055.31 1993.16 1049.33 1965.76 1049.33 1931.41H1026.52ZM1046.65 2025.37C1060.56 2049.1 1077.93 2068.21 1098.82 2082.41L1111.64 2063.55C1093.85 2051.46 1078.72 2034.98 1066.33 2013.84L1046.65 2025.37ZM1098.99 2082.53C1120.42 2096.54 1144.27 2105.98 1170.43 2110.88L1174.64 2088.47C1151.28 2084.09 1130.27 2075.73 1111.47 2063.44L1098.99 2082.53ZM1170.1 2110.81C1195.61 2116.39 1220.8 2119.2 1245.64 2119.2V2096.39C1222.52 2096.39 1198.97 2093.78 1174.97 2088.53L1170.1 2110.81Z" fill="#BC3B13" mask="url(#path-6-outside-3_186_116)"/>
</svg>
